<!DOCTYPE svg PUBLIC "-//W3C//DTD SVG 1.1//EN" "http://www.w3.org/Graphics/SVG/1.1/DTD/svg11.dtd">
<!-- Uploaded to: SVG Repo, www.svgrepo.com, Transformed by: SVG Repo Mixer Tools -->
<svg fill="#ffff" width="800px" height="800px" viewBox="0 0 60 60" id="Capa_1" version="1.1" xml:space="preserve" xmlns="http://www.w3.org/2000/svg" xmlns:xlink="http://www.w3.org/1999/xlink" stroke="#ffff">
<g id="SVGRepo_bgCarrier" stroke-width="0"/>
<g id="SVGRepo_tracerCarrier" stroke-linecap="round" stroke-linejoin="round"/>
<g id="SVGRepo_iconCarrier"> <g> <path d="M59,55.5v-39H47v39h-3v-31H32v31h-3v-23H17v23h-3v-14H2v14H1c-0.552,0-1,0.447-1,1s0.448,1,1,1h1h12h3h12h3h12h3h12 c0.552,0,1-0.447,1-1S59.552,55.5,59,55.5z M4,55.5v-12h8v12H4z M19,55.5v-21h8v21H19z M34,55.5v-29h8v29H34z M49,55.5v-37h8v37H49 z"/> <path d="M8.03,27.83c0.169,0,0.342-0.043,0.499-0.134l36.269-20.94l-2.27,4.99c-0.229,0.503-0.007,1.096,0.496,1.324 c0.134,0.062,0.275,0.09,0.414,0.09c0.38,0,0.743-0.218,0.911-0.586l3.562-7.83c0.011-0.025,0.009-0.052,0.018-0.078 c0.019-0.053,0.034-0.104,0.044-0.16c0.005-0.028,0.021-0.051,0.023-0.08c0.001-0.012-0.004-0.022-0.003-0.034 c0.002-0.038-0.002-0.073-0.004-0.111c-0.003-0.055-0.012-0.107-0.024-0.162c-0.008-0.038-0.01-0.077-0.023-0.114 c-0.012-0.036-0.033-0.066-0.049-0.101C47.88,3.881,47.88,3.854,47.866,3.83c-0.014-0.024-0.038-0.038-0.054-0.061 c-0.021-0.031-0.037-0.064-0.062-0.092c-0.026-0.03-0.059-0.051-0.089-0.078c-0.041-0.037-0.082-0.071-0.128-0.101 c-0.031-0.02-0.059-0.042-0.093-0.059c-0.011-0.005-0.017-0.015-0.028-0.02c-0.025-0.011-0.052-0.009-0.077-0.018 c-0.055-0.02-0.109-0.034-0.166-0.044c-0.026-0.005-0.047-0.02-0.074-0.022l-8.562-0.83c-0.555-0.056-1.039,0.35-1.092,0.898 c-0.054,0.55,0.349,1.039,0.898,1.092l5.456,0.529L7.529,25.964C7.05,26.24,6.887,26.852,7.163,27.33 C7.348,27.651,7.684,27.83,8.03,27.83z"/> </g> <g/> <g/> <g/> <g/> <g/> <g/> <g/> <g/> <g/> <g/> <g/> <g/> <g/> <g/> <g/> </g>
</svg>